<?xml version="1.0" encoding="UTF-8"?>
<svg width="32" height="32" viewBox="0 0 32 32" fill="none" xmlns="http://www.w3.org/2000/svg">
  <rect width="32" height="32" rx="8" fill="#4F46E5"/>
  <path d="M24 12H8C6.89543 12 6 12.8954 6 14V24C6 25.1046 6.89543 26 8 26H24C25.1046 26 26 25.1046 26 24V14C26 12.8954 25.1046 12 24 12Z" stroke="white" stroke-width="2" stroke-linecap="round" stroke-linejoin="round"/>
  <path d="M22 12V10C22 8.93913 21.5786 7.92172 20.8284 7.17157C20.0783 6.42143 19.0609 6 18 6H10C8.93913 6 7.92172 6.42143 7.17157 7.17157C6.42143 7.92172 6 8.93913 6 10V12" stroke="white" stroke-width="2" stroke-linecap="round" stroke-linejoin="round"/>
  <path d="M20 20H20.01" stroke="white" stroke-width="2" stroke-linecap="round" stroke-linejoin="round"/>
</svg> 